<?xml version="1.0" encoding="UTF-8"?>
<svg width="523px" height="117px" viewBox="0 0 523 117" version="1.1" xmlns="http://www.w3.org/2000/svg" xmlns:xlink="http://www.w3.org/1999/xlink">
    <!-- Generator: Sketch 55 (78076) - https://sketchapp.com -->
    <title>Group 29</title>
    <desc>Created with Sketch.</desc>
    <defs>
        <polygon id="path-1" points="0.6325 0.277 10.2125 0.277 10.2125 88.3648 0.6325 88.3648"></polygon>
        <polygon id="path-3" points="0 0.9009 59.4635 0.9009 59.4635 88.9999 0 88.9999"></polygon>
    </defs>
    <g id="Page-1" stroke="none" stroke-width="1" fill="none" fill-rule="evenodd">
        <g id="pillohealth-logo" transform="translate(-160.000000, -240.000000)">
            <g id="Group-29" transform="translate(160.000000, 239.000000)">
                <path d="M172.6941,85.3017 C161.4361,85.3017 151.6441,79.0267 146.6241,69.7827 C146.4051,69.3977 146.2091,68.9977 146.0161,68.5967 C145.9871,68.5377 145.9591,68.4797 145.9311,68.4207 C145.7861,68.1127 145.6391,67.8067 145.5101,67.4897 C144.5481,65.1337 144.0071,62.5617 144.0071,59.8637 C144.0071,52.3787 148.1111,45.5337 154.7191,42.0007 C157.0101,40.7767 157.8751,37.9257 156.6501,35.6347 C155.9421,34.3097 154.6871,33.4707 153.3141,33.2287 C153.0451,33.1807 152.7721,33.1487 152.4971,33.1487 C151.7491,33.1487 150.9901,33.3267 150.2841,33.7037 C140.6081,38.8777 134.5981,48.9007 134.5981,59.8637 C134.5981,76.2107 147.8981,89.5107 164.2451,89.5107 C170.6561,89.5107 176.5931,87.4587 181.4481,83.9867 C178.6811,84.8407 175.7411,85.3017 172.6941,85.3017" id="Fill-1" fill="#00CABA"></path>
                <path d="M193.8929,59.8637 C193.8929,48.9007 187.8829,38.8777 178.2079,33.7037 C177.5019,33.3267 176.7429,33.1487 175.9939,33.1487 C174.3149,33.1487 172.6889,34.0497 171.8419,35.6347 C170.6169,37.9257 171.4809,40.7767 173.7719,42.0007 C180.3799,45.5337 184.4849,52.3787 184.4849,59.8637 C184.4849,71.0237 175.4049,80.1027 164.2459,80.1027 C156.6899,80.1027 150.0999,75.9347 146.6239,69.7827 C151.6439,79.0267 161.4359,85.3017 172.6939,85.3017 C175.7419,85.3017 178.6809,84.8407 181.4479,83.9867 C188.9739,78.6047 193.8929,69.8007 193.8929,59.8637" id="Fill-3" fill="#008CFF"></path>
                <path d="M81.035,16.3031 C81.035,19.9191 78.111,22.8391 74.507,22.8391 C70.891,22.8391 67.974,19.9191 67.974,16.3031 C67.974,12.7021 70.891,9.7751 74.507,9.7751 C78.111,9.7751 81.035,12.7021 81.035,16.3031" id="Fill-5" fill="#5F5F6E"></path>
                <g id="Group-9" transform="translate(92.000000, 0.723000)">
                    <mask id="mask-2" fill="white">
                        <use xlink:href="#path-1"></use>
                    </mask>
                    <g id="Clip-8"></g>
                    <path d="M5.4095,88.3648 C2.7695,88.3648 0.6325,86.2278 0.6325,83.5768 L0.6325,5.0648 C0.6325,2.4218 2.7695,0.2768 5.4095,0.2768 C8.0495,0.2768 10.2125,2.4218 10.2125,5.0648 L10.2125,83.5768 C10.2125,86.2278 8.0495,88.3648 5.4095,88.3648" id="Fill-7" fill="#5F5F6E" mask="url(#mask-2)"></path>
                </g>
                <path d="M120.6253,89.0878 C117.9923,89.0878 115.8433,86.9508 115.8433,84.2998 L115.8433,5.7878 C115.8433,3.1448 117.9923,1.0078 120.6253,1.0078 C123.2663,1.0078 125.4213,3.1448 125.4213,5.7878 L125.4213,84.2998 C125.4213,86.9508 123.2663,89.0878 120.6253,89.0878" id="Fill-10" fill="#5F5F6E"></path>
                <path d="M74.5066,89.0878 C71.8666,89.0878 69.7186,86.9508 69.7186,84.2998 L69.7186,34.4198 C69.7186,31.7718 71.8666,29.6238 74.5066,29.6238 C77.1546,29.6238 79.2916,31.7718 79.2916,34.4198 L79.2916,84.2998 C79.2916,86.9508 77.1546,89.0878 74.5066,89.0878" id="Fill-12" fill="#5F5F6E"></path>
                <g id="Group-16" transform="translate(0.000000, 28.723000)">
                    <mask id="mask-4" fill="white">
                        <use xlink:href="#path-3"></use>
                    </mask>
                    <g id="Clip-15"></g>
                    <path d="M29.7205,0.9009 C13.3285,0.9009 -0.0005,14.2369 -0.0005,30.6329 L-0.0005,84.1959 C-0.0005,86.8519 2.1335,88.9999 4.7845,88.9999 C7.4245,88.9999 9.5685,86.8479 9.5685,84.1959 L9.5685,57.2539 C9.5685,55.9689 10.6105,54.9269 11.8955,54.9269 C12.3125,54.9269 12.7055,55.0369 13.0445,55.2309 C17.8025,58.4689 23.5515,60.3649 29.7205,60.3649 C46.1125,60.3649 59.4635,47.0369 59.4635,30.6329 C59.4635,14.2369 46.1125,0.9009 29.7205,0.9009 M29.7205,50.7959 C18.6085,50.7959 9.5685,41.7559 9.5685,30.6329 C9.5685,19.5279 18.6085,10.4739 29.7205,10.4739 C40.8325,10.4739 49.8725,19.5279 49.8725,30.6329 C49.8725,41.7559 40.8325,50.7959 29.7205,50.7959" id="Fill-14" fill="#5F5F6E" mask="url(#mask-4)"></path>
                </g>
                <path d="M317.5159,55.0683 L276.8539,55.0683 C277.2449,52.8483 277.9829,50.7503 279.0549,48.8153 C280.2359,46.6223 281.7569,44.7063 283.5839,43.1153 C285.3709,41.5303 287.4609,40.2633 289.7919,39.3513 C292.1199,38.4403 294.6169,37.9793 297.2169,37.9793 C300.0879,37.9793 302.7919,38.5083 305.2459,39.5493 C307.7169,40.6333 309.9289,42.1263 311.8129,43.9753 C313.3999,45.5953 314.7029,47.4283 315.6809,49.4183 C316.5299,51.1753 317.1459,53.0723 317.5159,55.0683 M324.5729,47.3123 C323.0589,43.7813 320.9039,40.5663 318.1619,37.7513 C315.4939,35.0473 312.3489,32.8713 308.8109,31.2823 C305.2659,29.7283 301.3659,28.9393 297.2169,28.9393 C293.1029,28.9393 289.1839,29.7463 285.5689,31.3363 C281.9609,32.9243 278.7949,35.1023 276.1659,37.8043 C273.4949,40.5103 271.3729,43.7113 269.8609,47.3143 C268.3079,50.9603 267.5209,54.8933 267.5209,59.0063 C267.5209,61.7523 267.8869,64.4253 268.6099,66.9523 C269.3289,69.4733 270.3539,71.8683 271.6509,74.0673 C272.9499,76.3043 274.5429,78.3553 276.3749,80.1533 C278.1869,82.0003 280.2409,83.5773 282.4689,84.8333 C284.6679,86.1313 287.0639,87.1563 289.5879,87.8783 C292.1179,88.6003 294.7909,88.9663 297.5349,88.9663 C299.6589,88.9663 301.7419,88.7653 303.7129,88.3713 C305.6669,88.0093 307.5779,87.4213 309.3959,86.6223 C311.2689,85.7943 313.0749,84.7903 314.7609,83.6403 C316.4599,82.4843 318.0169,81.1653 319.4399,79.6623 C320.3289,78.5313 320.7789,77.4193 320.7789,76.3543 C320.7789,75.1483 320.3419,74.0993 319.4659,73.2233 C318.5719,72.3723 317.5109,71.9403 316.3119,71.9403 C315.7199,71.9403 315.1409,72.0473 314.5629,72.2703 C313.9549,72.5293 313.3919,72.9603 312.9159,73.5163 C310.8869,75.6463 308.5229,77.2913 305.8909,78.4033 C304.6099,78.9443 303.2569,79.3553 301.8559,79.6293 C300.4719,79.9313 299.0189,80.0863 297.5349,80.0863 C295.0349,80.0863 292.6209,79.6583 290.3629,78.8153 C288.0989,77.9703 286.0259,76.7713 284.1869,75.2393 C282.3319,73.7563 280.7599,71.9433 279.5049,69.8393 C278.3969,68.0623 277.5689,66.1203 277.0369,64.0543 L322.3399,64.0543 C322.9149,64.0543 323.4939,63.9223 324.0809,63.6513 C324.5809,63.4013 325.0449,63.0643 325.4269,62.6803 C325.8619,62.2893 326.2119,61.8083 326.4569,61.2753 C326.7249,60.7393 326.8609,60.1723 326.8609,59.5883 L326.8609,58.5833 C326.8609,54.6833 326.0909,50.8913 324.5729,47.3123" id="Fill-17" fill="#5F5F6E"></path>
                <path d="M411.3811,2.3607 C410.4141,1.5697 409.3351,1.1687 408.1761,1.1687 C407.0081,1.1687 405.9441,1.5737 405.0271,2.3607 C404.0081,3.1937 403.4911,4.4427 403.4911,6.0747 L403.4911,84.2267 C403.4911,85.9417 404.0141,87.2147 405.0111,87.9837 C405.9441,88.7827 407.0081,89.1887 408.1761,89.1887 C409.3351,89.1887 410.4131,88.7867 411.3611,88.0107 C412.3931,87.2147 412.9151,85.9417 412.9151,84.2267 L412.9151,6.0747 C412.9151,4.4427 412.3991,3.1937 411.3811,2.3607" id="Fill-19" fill="#5F5F6E"></path>
                <path d="M520.7786,43.6142 C519.3456,40.3512 517.3976,37.4642 514.9826,35.0312 C512.5506,32.6012 509.6636,30.6382 506.3896,29.1922 C503.0796,27.7842 499.5326,27.0712 495.8466,27.0712 C492.2036,27.0712 488.6786,27.7452 485.3666,29.0772 C482.6816,30.1882 480.2326,31.7182 478.0636,33.6352 L478.0706,6.0742 C478.0706,4.4432 477.5546,3.1942 476.5376,2.3612 C475.5706,1.5702 474.4916,1.1682 473.3316,1.1682 C472.1646,1.1682 471.0996,1.5732 470.1816,2.3612 C469.1636,3.1932 468.6466,4.4432 468.6466,6.0742 L468.6466,84.2262 C468.6466,85.9412 469.1696,87.2152 470.1676,87.9842 C471.0996,88.7832 472.1656,89.1882 473.3316,89.1882 C474.4906,89.1882 475.5696,88.7872 476.5176,88.0102 C477.5486,87.2142 478.0706,85.9402 478.0706,84.2262 L478.0706,54.1642 C478.0706,51.7442 478.5506,49.4142 479.5006,47.2342 C480.4146,45.0902 481.6966,43.1842 483.3106,41.5692 C484.8916,39.9892 486.7996,38.7052 488.9756,37.7582 C491.1156,36.8462 493.4276,36.3842 495.8506,36.3842 C498.2726,36.3842 500.5856,36.8462 502.7106,37.7512 C504.8246,38.7032 506.7196,39.9892 508.3286,41.5622 C509.9086,43.1772 511.1736,45.0852 512.0896,47.2292 C513.0016,49.4072 513.4646,51.7412 513.4646,54.1642 L513.4646,84.2262 C513.4646,85.9392 513.9826,87.2132 514.9876,87.9942 C515.9496,88.7872 517.0226,89.1882 518.1756,89.1882 C519.3296,89.1882 520.4026,88.7872 521.3456,88.0092 C522.3696,87.2132 522.8876,85.9392 522.8876,84.2262 L522.8876,54.1642 C522.8876,50.4782 522.1796,46.9322 520.7786,43.6142" id="Fill-21" fill="#5F5F6E"></path>
                <path d="M255.8997,43.7284 C254.4667,40.4654 252.5187,37.5784 250.1037,35.1454 C247.6707,32.7144 244.7827,30.7514 241.5117,29.3064 C238.2007,27.8984 234.6527,27.1854 230.9687,27.1854 C227.3247,27.1854 223.8017,27.8594 220.4877,29.1924 C217.8027,30.3034 215.3537,31.8324 213.1847,33.7494 L213.1927,6.1884 C213.1927,4.5584 212.6757,3.3084 211.6577,2.4754 C210.6907,1.6844 209.6127,1.2824 208.4527,1.2824 C207.2847,1.2824 206.2197,1.6874 205.3027,2.4754 C204.2847,3.3084 203.7687,4.5574 203.7687,6.1884 L203.7687,84.3404 C203.7687,86.0554 204.2907,87.3294 205.2877,88.0974 C206.2207,88.8984 207.2857,89.3024 208.4527,89.3024 C209.6117,89.3024 210.6907,88.9024 211.6397,88.1244 C212.6697,87.3284 213.1927,86.0554 213.1927,84.3404 L213.1927,54.2784 C213.1927,51.8584 213.6727,49.5284 214.6217,47.3484 C215.5347,45.2044 216.8177,43.2984 218.4327,41.6834 C220.0137,40.1034 221.9207,38.8194 224.0977,37.8724 C226.2367,36.9604 228.5497,36.4984 230.9717,36.4984 C233.3937,36.4984 235.7077,36.9604 237.8317,37.8654 C239.9467,38.8174 241.8417,40.1034 243.4497,41.6774 C245.0287,43.2914 246.2947,45.2004 247.2097,47.3434 C248.1217,49.5214 248.5857,51.8554 248.5857,54.2784 L248.5857,84.3404 C248.5857,86.0544 249.1037,87.3284 250.1087,88.1084 C251.0697,88.9014 252.1437,89.3024 253.2967,89.3024 C254.4507,89.3024 255.5237,88.9014 256.4667,88.1244 C257.4897,87.3284 258.0087,86.0544 258.0087,84.3404 L258.0087,54.2784 C258.0087,50.5944 257.3007,47.0484 255.8997,43.7284" id="Fill-23" fill="#5F5F6E"></path>
                <path d="M363.4768,79.3114 C352.3478,79.3114 343.3258,70.2894 343.3258,59.1604 C343.3258,48.0304 352.3478,39.0084 363.4768,39.0084 C374.6068,39.0084 383.6288,48.0304 383.6288,59.1604 C383.6288,70.2894 374.6068,79.3114 363.4768,79.3114 M392.2898,51.2104 C391.5628,48.7034 390.5478,46.3054 389.2668,44.0704 C387.9578,41.8914 386.3918,39.8624 384.5958,38.0294 C382.7728,36.2434 380.7418,34.6924 378.5528,33.4154 C376.3328,32.1434 373.9168,31.1284 371.3598,30.3964 C368.8048,29.7044 366.1258,29.3534 363.3978,29.3534 C359.3158,29.3534 355.4138,30.1294 351.7958,31.6654 C348.1908,33.2304 345.0138,35.3734 342.3528,38.0354 C339.6548,40.7334 337.5098,43.9304 335.9828,47.5324 C334.4128,51.1454 333.6168,55.0484 333.6168,59.1334 C333.6168,61.8704 333.9878,64.5354 334.7158,67.0444 C335.4068,69.5594 336.4048,71.9444 337.6798,74.1274 C338.9588,76.3574 340.5338,78.3944 342.3468,80.1714 C344.1358,81.9974 346.1728,83.5714 348.3888,84.8414 C350.5818,86.1584 352.9698,87.1764 355.4748,87.8654 C357.9938,88.5964 360.6588,88.9664 363.3978,88.9664 C367.8448,88.9664 372.0248,88.0594 375.8168,86.2734 C378.9698,84.8184 381.8028,82.8964 384.2608,80.5474 L384.2608,84.1874 C384.2608,85.7594 384.7588,86.9634 385.7078,87.7384 C386.6088,88.5534 387.6398,88.9664 388.7728,88.9664 C389.8978,88.9664 390.9418,88.5584 391.8608,87.7644 C392.8398,86.9614 393.3378,85.7574 393.3378,84.1874 L393.3378,59.1334 C393.3378,56.4014 392.9868,53.7394 392.2898,51.2104" id="Fill-25" fill="#5F5F6E"></path>
                <path d="M452.8548,79.6532 C450.4018,79.6532 448.0938,79.1742 445.9978,78.2302 C443.8808,77.2782 441.9858,75.9922 440.3718,74.4132 C438.7938,72.8362 437.5508,70.9692 436.6698,68.8542 C435.7588,66.7542 435.2978,64.4802 435.2978,62.0952 L435.2978,36.3842 L453.2988,36.3842 C453.6588,36.3842 453.9918,36.3492 454.3128,36.2992 C455.4868,36.1342 456.4238,35.6622 457.0868,34.8612 C457.8778,33.9062 458.2798,32.8402 458.2798,31.6952 C458.2798,30.5412 457.8748,29.4892 457.0868,28.5842 C457.0628,28.5542 457.0298,28.5352 457.0038,28.5062 L456.9878,28.4642 C456.8808,28.3452 456.7498,28.2562 456.6288,28.1532 C456.5288,28.0652 456.4358,27.9672 456.3268,27.8902 C456.2268,27.8212 456.1108,27.7712 456.0028,27.7112 C455.8218,27.6072 455.6428,27.5012 455.4408,27.4232 C455.4248,27.4172 455.4078,27.4152 455.3918,27.4092 C454.8008,27.1892 454.1328,27.0672 453.3738,27.0672 L453.3738,27.0772 C453.3468,27.0762 453.3258,27.0712 453.2988,27.0712 L435.2978,27.0712 L435.2978,6.0742 C435.2978,4.4432 434.7818,3.1942 433.7638,2.3612 C432.7968,1.5702 431.7178,1.1682 430.5578,1.1682 C429.3908,1.1682 428.3258,1.5732 427.4098,2.3612 C426.3908,3.1942 425.8748,4.4432 425.8748,6.0742 L425.8748,62.0952 C425.8748,65.7862 426.5888,69.2972 427.9978,72.5322 C429.4018,75.7592 431.3658,78.6472 433.8338,81.1162 C436.2308,83.5112 439.0808,85.4382 442.3078,86.8422 C445.5438,88.2522 449.0918,88.9662 452.8548,88.9662 C454.4878,88.9662 455.7378,88.4502 456.5688,87.4322 C457.3608,86.4652 457.7618,85.3872 457.7618,84.2262 C457.7618,83.1402 457.3608,82.0992 456.5568,81.1172 C455.7248,80.1452 454.4788,79.6532 452.8548,79.6532" id="Fill-27" fill="#5F5F6E"></path>
            </g>
        </g>
    </g>
</svg>